<?xml version="1.0" encoding="utf-8"?>
<!-- Generator: Adobe Illustrator 23.0.3, SVG Export Plug-In . SVG Version: 6.00 Build 0)  -->
<svg version="1.1" id="Layer_1" xmlns="http://www.w3.org/2000/svg" xmlns:xlink="http://www.w3.org/1999/xlink" x="0px" y="0px"
	 viewBox="0 0 864 864" style="enable-background:new 0 0 864 864;" xml:space="preserve">
<path d="M736.5,394.3c-39.6-84.7-106-135.9-198.9-148.8c-68.7-9.5-138.1-7.4-207.2-6c-16.9,0.3-33.7,2.2-50.6,3.8
	c-3.2,0.3-6.8,2.2-9,4.5c-8.7,9.2-9.7,9.4-21.2,3.7c-7-3.5-14.2-8.7-21.6-9c-20.9-0.9-42-0.2-62.9,0.8c-10.3,0.5-18.1,6.6-22.4,16
	c-4.5,9.8-8.9,19.7-12,30c-12.8,42.7-14.9,86.6-14.2,130.9c0.8,56.5,5.8,112.5,21,167.1c6.8,24.4,16.8,31.8,42.3,31.9
	c18.1,0.1,36.2-1,54.3-1c12.1,0,23.1-1.7,31.2-12.3c1.1-1.4,6.8-1.7,7.7-0.5c8.2,10.8,20.1,12.9,32,13.5
	c38.8,1.8,77.5,2.8,117.6,4.2c40.5-2,82.2-3.7,123.8-6.4c75.2-4.8,134-39.5,177-100.5C749.8,478.7,756.4,436.9,736.5,394.3z
	 M223,343c-23.5,0-45.8,0-69,0c0.4-9.7,0.4-19.3,1.6-28.7c0.4-2.7,4.5-6.9,7.2-7.1c20.5-1.5,41.1-2.1,62.9-3.1
	C224.8,318.1,224,329.8,223,343z M267.5,572.2c-2-4.4-5.2-8.7-5.7-13.3c-4.3-40.3-10-80.6-11.6-121c-1.8-45.4,0.2-90.9,0.9-136.4
	c0.2-12.5,1-12.7,14.9-10.9c-9.3,93.5-5.3,187,5.4,280.4C270.1,571.4,268.8,571.8,267.5,572.2z M652.5,372c4.1,0,7.5,3.4,7.5,7.5
	s-3.4,7.5-7.5,7.5s-7.5-3.4-7.5-7.5S648.4,372,652.5,372z M286.5,341.6c-3.4,0-6.9,0-10.3,0c0-12-0.3-23,0.4-33.9
	c0.1-1.5,5.1-3.9,7.9-3.9c28.3-0.1,56.6,0.2,84.9,0.4c31.8,0.2,63.6,0.7,95.4,0.5c7.5,0,10.1,1.7,10.2,9.6
	c0.2,26.7,0,27.2-26.5,27.2C394.5,341.6,340.5,341.6,286.5,341.6z M367.3,396.4c28.2-9.7,60,10.8,67.1,42.4
	c4.3,19.4-1.3,36.8-13.9,38.6c0.6-6.3,1.1-12.2,1.6-18.2c1.8-19.3-7.4-34.3-25.5-41.2c-18.1-6.9-34-2.4-45.6,13.3
	c-5.6,7.6-10.6,15.8-16.2,24C324.7,427.9,343.5,404.7,367.3,396.4z M552.1,524c-5.6,3.5-7.8,7.6-7.8,14.2
	c0.1,17.2-5.7,24.3-21.8,30.7c-3.5,1.4-7.1,4.3-8.9,7.5c-6,11-15.4,15.2-27,13.5c-16.9-2.5-32.3-8.8-40.8-25
	c-6.2-11.9-16.2-18-28.1-23.4c-21.7-9.8-42.9-20.9-64-31.9c-9-4.7-12.3-12.9-11-22.8c2.4-18.3,7.9-35.3,21-48.9
	c8.3-8.6,19-10.8,28.7-6.5c9.9,4.4,15.5,14.8,15.1,26.4c-0.3,8.6-5.2,12.2-13.1,13.6c-0.2,1-0.4,2.1-0.5,3.1
	c14.6,8.2,29.3,16.5,44,24.5c5.5,3,9.7,1.2,13.5-3.7c5.9-7.6,12.2-14.9,18.6-22.1c14.5-16.5,32.7-18.3,50.4-5.4
	c5.1,3.7,11.2,6.1,16.8,9.3c10,5.7,19.1,12.5,22.7,24.2C562.8,511,560.6,518.6,552.1,524z M671.5,430.8c-21.6,21-43.4,23.8-69.7,7.4
	C582.3,426,566.5,410,555.9,389c-8.5-16.8-10.7-34.2-7.8-52.6c1.8-11.5,2.5-23.1,3.6-33.9c7.2,6.7,15.9,15.3,25,23.2
	c12.1,10.5,24.4,20.8,36.9,30.7c6.1,4.9,9.7,9.9,9.2,18.4c-0.6,11.3,5.7,19.4,15.6,24.2c8.7,4.3,16.8,3.4,24.2-3.6
	c1.3-1.3,5-1.8,6.5-0.9c8.5,5,16.7,10.5,24.5,15.4C686,417.2,678.6,423.8,671.5,430.8z"/>
</svg>
